<svg version="1.1"
    xmlns="http://www.w3.org/2000/svg"
    xmlns:xlink="http://www.w3.org/1999/xlink" width="48" height="48">
    <defs>
        <linearGradient x1="6.92645" y1="7.05631" x2="59.45833" y2="59.32848" gradientUnits="userSpaceOnUse" id="color-1"><stop offset="0" stop-color="#000000" stop-opacity="0.26"></stop><stop offset="1" stop-color="#000000" stop-opacity="0"></stop></linearGradient><filter id="dropshadow-base"><feColorMatrix type="matrix" values="0 0 0 0 0  0 0 0 0 0  0 0 0 0 0  0 0 0 .8 0"></feColorMatrix> <feOffset dx="0" dy="1"></feOffset> <feGaussianBlur stdDeviation="1"></feGaussianBlur> <feComposite in="SourceGraphic"></feComposite></filter><filter id="dropshadow-banner" x="-10%" y="-10%" width="120%" height="130%"><feColorMatrix type="matrix" values="0 0 0 0 0  0 0 0 0 0  0 0 0 0 0  0 0 0 .4 0"></feColorMatrix> <feOffset dx="0" dy="1"></feOffset> <feGaussianBlur stdDeviation="0.5"></feGaussianBlur> <feComposite in="SourceGraphic"></feComposite></filter></defs><g fill="none" fill-rule="nonzero" stroke="none" stroke-width="none" stroke-linecap="butt" stroke-linejoin="miter" stroke-miterlimit="10" stroke-dasharray="" stroke-dashoffset="0" font-family="none" font-weight="none" font-size="none" text-anchor="none" style="mix-blend-mode: normal"><path d="M2,24c0,-12.15026 9.84974,-22 22,-22c12.15026,0 22,9.84974 22,22c0,12.15026 -9.84974,22 -22,22c-12.15026,0 -22,-9.84974 -22,-22z" id="base 1 5" fill="#36474f" stroke-width="1"></path><path d="M24.70601,7.05631c4.05756,0.22925 7.60861,1.76301 10.35559,4.16509l1.52317,1.52317l0.13841,-0.13753l9.16545,9.16545c0.07365,0.7325 0.11137,1.4756 0.11137,2.22751c0,12.15026 -9.84974,22 -22,22c-0.7176,0 -1.42717,-0.03436 -2.12717,-0.10152l-9.98527,-9.98527c-3.05963,-3.05963 -4.96111,-7.26638 -4.96111,-11.91187c0,-9.02064 6.95805,-16.41758 15.74943,-16.94439l2.03013,2.03013z" fill="url(#color-1)" stroke-width="1"></path><path transform="translate(-16.97652,-16.97652) scale(1.70735,1.70735)" d="M23.38527,22.63707l-0.00475,-0.00475l5.03347,-3.0871l-2.86727,5.17368l-0.00436,-0.00396c-0.26102,0.5062 -0.78306,0.85674 -1.39224,0.85674c-0.86703,0 -1.57088,-0.70385 -1.57088,-1.57088c0,-0.58779 0.32717,-1.09399 0.80604,-1.36373zM28.73244,18.19971c-1.17202,-0.9815 -2.3385,-1.61049 -4.31893,-1.73644v-2.38721c2.37652,0.13427 4.45637,1.0326 6.06528,2.4395zM29.76465,19.00376l1.68733,-1.67663c1.44374,1.60019 2.37335,3.5529 2.53337,5.92942h-2.38484c-0.15091,-1.58435 -0.8195,-3.08829 -1.83586,-4.25278zM31.6112,24.44441h2.3888c-0.25389,5.14913 -4.67343,9.47954 -9.99366,9.47954c-5.48303,0 -10.00634,-4.43974 -10.00634,-9.92316c0,-5.2834 4.07534,-9.6158 9.22446,-9.92435v2.38721c-3.56478,0.30499 -6.84794,3.55488 -6.84794,7.52683c0,4.17238 3.51963,7.55694 7.6924,7.55733c4.0084,0 7.28998,-3.14216 7.54228,-7.10302z" fill="none" stroke-width="0"></path><path d="M22.95044,21.67299l-0.00812,-0.00812l8.59392,-5.27077l-4.89545,8.83331l-0.00744,-0.00676c-0.44566,0.86426 -1.33697,1.46275 -2.37706,1.46275c-1.48033,0 -2.68205,-1.20171 -2.68205,-2.68205c0,-1.00357 0.55859,-1.86783 1.37619,-2.32836zM32.07996,14.09684c-2.00105,-1.67577 -3.99264,-2.74968 -7.37394,-2.96473v-4.07582c4.05756,0.22925 7.60861,1.76301 10.35558,4.16509zM33.8423,15.46965l2.88087,-2.86261c2.46497,2.73209 4.05215,6.06606 4.32536,10.12362h-4.07176c-0.25766,-2.70504 -1.39918,-5.2728 -3.13447,-7.26101zM36.99502,24.75876h4.07853c-0.43348,8.79139 -7.9792,16.18494 -17.06273,16.18494c-9.36147,0 -17.08437,-7.5802 -17.08437,-16.94235c0,-9.02064 6.95804,-16.41758 15.74943,-16.94438v4.07582c-6.08634,0.52072 -11.69187,6.06944 -11.69187,12.85098c0,7.12373 6.00925,12.90237 13.13366,12.90305c6.84376,0 12.44657,-5.36477 12.87735,-12.12738z" fill="#ffffff" stroke-width="0"></path><path d="M2,24c0,-12.15026 9.84974,-22 22,-22c12.15026,0 22,9.84974 22,22c0,12.15026 -9.84974,22 -22,22c-12.15026,0 -22,-9.84974 -22,-22z" id="base 1 1 1" fill="none" stroke-width="1"></path><g id="Capa_1 1 1" fill="#000000" stroke-width="1" font-family="Roboto, sans-serif" font-weight="400" font-size="14" text-anchor="start"><g><g><g></g></g></g><g></g><g></g><g></g><g></g><g></g><g></g><g></g><g></g><g></g><g></g><g></g><g></g><g></g><g></g><g></g></g><rect x="2" y="2" width="44" height="22" fill="none" stroke-width="1"></rect><path d="M2,24v-22h44v22z" fill="none" stroke-width="1"></path><path d="M2,24v-22h44v22z" fill="none" stroke-width="1"></path><path d="M2,24v-22h44v22z" fill="none" stroke-width="1"></path><path d="M2,24v-22h44v22z" fill="none" stroke-width="1"></path></g></svg>